<?xml version="1.0" encoding="UTF-8"?>
<svg version="1.1" xmlns="http://www.w3.org/2000/svg" width="136" height="118">
<path d="M0 0 C-0.226875 0.9075 -0.45375 1.815 -0.6875 2.75 C-1.22280961 6.35972291 -0.56233345 9.07242715 0.4375 12.5625 C3.80605838 24.99667173 2.71790799 38.08070775 -3.125 49.625 C-6.36834277 55.01424025 -10.60857528 59.53001669 -15 64 C-15.50402344 64.51691406 -16.00804688 65.03382812 -16.52734375 65.56640625 C-26.50706042 74.79402833 -41.67405657 77.55268573 -54.74609375 77.22265625 C-59.03073144 76.92946976 -62.91074235 76.30317002 -67 75 C-68.17949219 74.63261719 -68.17949219 74.63261719 -69.3828125 74.2578125 C-76.319622 71.80057277 -82.59876281 68.01893546 -88 63 C-88.9375 60.94140625 -88.9375 60.94140625 -89 59 C-87.88331906 57.341898 -86.74816931 55.69325294 -85.5234375 54.11328125 C-83.79450816 51.71494594 -82.44407263 49.23829214 -81.0625 46.625 C-79.19358165 43.11659573 -77.24936448 39.77714198 -75 36.5 C-72.21596196 32.43602759 -69.90598167 28.2068078 -67.58984375 23.86328125 C-64.94700526 19.10357459 -61.97800079 14.55510772 -59 10 C-56 11 -56 11 -54.28125 14.0625 C-53.67543888 15.36947674 -53.08231827 16.68238824 -52.5 18 C-52.19247803 18.67683838 -51.88495605 19.35367676 -51.56811523 20.05102539 C-49.37817475 24.94525922 -47.53354819 29.85810311 -46 35 C-62.69230769 37.15384615 -62.69230769 37.15384615 -67 35 C-67.268125 35.53625 -67.53625 36.0725 -67.8125 36.625 C-69.20833333 39.41666667 -70.60416667 42.20833333 -72 45 C-64.72224603 44.93286364 -57.4450235 44.84300297 -50.16772461 44.73754883 C-47.69350508 44.70435196 -45.21921078 44.67630382 -42.74487305 44.65356445 C-39.18245666 44.61992299 -35.62072228 44.56760013 -32.05859375 44.51171875 C-30.40663246 44.50213387 -30.40663246 44.50213387 -28.72129822 44.49235535 C-22.73654295 44.37850868 -18.26566209 43.93584345 -13 41 C-11.23813813 38.77852199 -11.02892631 37.15186314 -10.5 34.375 C-11.66296206 26.52500607 -17.31943037 20.24890228 -22.6796875 14.69140625 C-24 13 -24 13 -24 10 C-25.32 9.34 -26.64 8.68 -28 8 C-28 5.69 -28 3.38 -28 1 C-24.08339071 0.83196656 -20.16670399 0.66581012 -16.25 0.5 C-15.13882813 0.45230469 -14.02765625 0.40460937 -12.8828125 0.35546875 C-11.27792969 0.28779297 -11.27792969 0.28779297 -9.640625 0.21875 C-8.65610352 0.17685547 -7.67158203 0.13496094 -6.65722656 0.09179688 C-4.43926319 0.01517484 -2.21928648 0 0 0 Z " fill="#1B428C" transform="translate(120,35)"/>
<path d="M0 0 C0 0.66 0 1.32 0 2 C0.61875 2.061875 1.2375 2.12375 1.875 2.1875 C2.57625 2.455625 3.2775 2.72375 4 3 C5.1328125 5.55078125 5.1328125 5.55078125 6 8 C4.69804688 8.04898437 3.39609375 8.09796875 2.0546875 8.1484375 C0.32810529 8.22350629 -1.39845622 8.29905233 -3.125 8.375 C-4.40890625 8.42140625 -4.40890625 8.42140625 -5.71875 8.46875 C-10.43938473 8.68662545 -14.63373075 9.00655322 -19 11 C-21.40892799 15.50364798 -21.22055711 19.11777154 -20 24 C-17.13121534 28.66506497 -13.78566356 32.91505113 -10.375 37.1875 C-5.23986486 43.6402027 -5.23986486 43.6402027 -3 47 C-3.375 49.6875 -3.375 49.6875 -4 52 C-6.97 52 -9.94 52 -13 52 C-22.62122229 31.85219985 -22.62122229 31.85219985 -26.9375 22.625 C-27.46214844 21.50351562 -27.98679688 20.38203125 -28.52734375 19.2265625 C-30.07364745 15.83863979 -31.54616485 12.42844706 -33 9 C-36.46941546 9.45822468 -39.67395049 9.89131683 -43 11 C-43.73284667 12.63864516 -44.3869282 14.31288258 -45 16 C-46.09102461 18.03937678 -47.22068033 20.05826986 -48.375 22.0625 C-48.71515137 22.65321289 -49.05530273 23.24392578 -49.40576172 23.85253906 C-54.01327104 31.81077997 -58.77524639 39.67852346 -63.52514648 47.55224609 C-65.05571385 50.09246599 -66.58100786 52.6357989 -68.10546875 55.1796875 C-70.4499977 59.08825202 -72.80697983 62.98824251 -75.1875 66.875 C-75.84105469 67.94492188 -76.49460937 69.01484375 -77.16796875 70.1171875 C-80.23086223 74.93683652 -80.23086223 74.93683652 -82 77 C-82.66 77 -83.32 77 -84 77 C-83.53406408 73.83163576 -82.91168617 71.85175892 -81.25 69.0625 C-80.8375 68.051875 -80.425 67.04125 -80 66 C-80.96102861 63.9809844 -81.96755435 61.98344548 -83 60 C-87.14534945 45.44862928 -87.14435307 31.70508982 -80.50390625 17.88671875 C-79.08931186 15.50554365 -77.62764493 13.23963942 -76 11 C-75.48566406 10.25234375 -74.97132812 9.5046875 -74.44140625 8.734375 C-73.96574219 8.16203125 -73.49007812 7.5896875 -73 7 C-72.34 7 -71.68 7 -71 7 C-70.78085938 6.4225 -70.56171875 5.845 -70.3359375 5.25 C-66.30261442 -1.54296518 -56.18283251 -6.19588173 -48.7890625 -8.37109375 C-31.31535325 -11.2713692 -15.06399641 -9.68399769 0 0 Z " fill="#32ACDA" transform="translate(100,18)"/>
<path d="M0 0 C-0.226875 0.9075 -0.45375 1.815 -0.6875 2.75 C-1.22280961 6.35972291 -0.56233345 9.07242715 0.4375 12.5625 C3.80605838 24.99667173 2.71790799 38.08070775 -3.125 49.625 C-6.36834277 55.01424025 -10.60857528 59.53001669 -15 64 C-15.50402344 64.51691406 -16.00804687 65.03382812 -16.52734375 65.56640625 C-26.5088184 74.79565383 -41.66558953 77.54295328 -54.73828125 77.2265625 C-61.99318902 76.72262879 -68.28116639 74.68753344 -75 72 C-75 71.67 -75 71.34 -75 71 C-72.94921875 70.77213542 -70.8984375 70.54427083 -68.84765625 70.31640625 C-66.98859771 70.18113386 -66.98859771 70.18113386 -66 69 C-64.09089274 69.0233855 -62.18163469 69.05328862 -60.2734375 69.11669922 C-43.55525801 69.61021225 -30.00015764 65.43307916 -17.27734375 54.296875 C-15.87416095 53.00583938 -15.87416095 53.00583938 -15 51 C-14.34 51 -13.68 51 -13 51 C-12.9175 50.46375 -12.835 49.9275 -12.75 49.375 C-11.73817124 46.17087558 -9.86150595 43.79225892 -8 41 C-5.0682071 35.45053486 -4.62530261 31.12005741 -5 25 C-6.98 25.33 -8.96 25.66 -11 26 C-10.505 28.475 -10.505 28.475 -10 31 C-10.38929687 30.4740625 -10.77859375 29.948125 -11.1796875 29.40625 C-12.57942193 27.55595728 -14.00663607 25.72642849 -15.4453125 23.90625 C-15.88230469 23.35066406 -16.31929687 22.79507813 -16.76953125 22.22265625 C-17.67617241 21.07041201 -18.58767838 19.9219797 -19.50390625 18.77734375 C-21.76703558 15.8829558 -23.29965545 13.61141526 -24 10 C-25.9837767 8.71563266 -25.9837767 8.71563266 -28 8 C-28 5.69 -28 3.38 -28 1 C-24.08339071 0.83196656 -20.16670399 0.66581012 -16.25 0.5 C-15.13882813 0.45230469 -14.02765625 0.40460937 -12.8828125 0.35546875 C-11.27792969 0.28779297 -11.27792969 0.28779297 -9.640625 0.21875 C-8.65610352 0.17685547 -7.67158203 0.13496094 -6.65722656 0.09179688 C-4.43926319 0.01517484 -2.21928648 0 0 0 Z " fill="#2071A9" transform="translate(120,35)"/>
<path d="M0 0 C0.474375 0.66 0.94875 1.32 1.4375 2 C2.2109375 2.99 2.2109375 2.99 3 4 C3.99 4 4.98 4 6 4 C5.67 5.65 5.34 7.3 5 9 C4.34 9 3.68 9 3 9 C3 9.99 3 10.98 3 12 C2.34 12.33 1.68 12.66 1 13 C0.34786708 15.02463255 0.34786708 15.02463255 0 17 C-0.66 17 -1.32 17 -2 17 C-2 18.32 -2 19.64 -2 21 C-2.66 21 -3.32 21 -4 21 C-3.91492188 22.16789062 -3.82984375 23.33578125 -3.7421875 24.5390625 C-3.74863496 29.42408847 -5.47101447 32.39007154 -8.125 36.375 C-8.95966641 37.6926887 -9.79430182 39.01039704 -10.62890625 40.328125 C-11.0377002 40.95912109 -11.44649414 41.59011719 -11.86767578 42.24023438 C-13.32311141 44.5021533 -14.69604331 46.80845847 -16.0625 49.125 C-18.42112867 53.05165554 -20.79763592 56.9672861 -23.1875 60.875 C-24.16783203 62.47988281 -24.16783203 62.47988281 -25.16796875 64.1171875 C-28.23086223 68.93683652 -28.23086223 68.93683652 -30 71 C-30.66 71 -31.32 71 -32 71 C-31.57807976 68.04655832 -31.09310219 66.14151532 -29.4375 63.625 C-27.41499646 59.93173266 -27.32476777 56.32405511 -28.50390625 52.265625 C-31.24353497 39.7539348 -28.59807168 26.88783706 -22.7734375 15.75 C-20.1949166 11.75158874 -17.27144569 9.09735657 -13 7 C-11.00102872 6.66055205 -9.00124361 6.32578384 -7 6 C-5.21030974 3.57327433 -5.21030974 3.57327433 -4 1 C-2 0 -2 0 0 0 Z " fill="#2891C6" transform="translate(48,24)"/>
<path d="M0 0 C3 1 3 1 4.71875 4.0625 C5.32456112 5.36947674 5.91768173 6.68238824 6.5 8 C6.80752197 8.67683838 7.11504395 9.35367676 7.43188477 10.05102539 C9.62182525 14.94525922 11.46645181 19.85810311 13 25 C-3.69230769 27.15384615 -3.69230769 27.15384615 -8 25 C-8.268125 25.53625 -8.53625 26.0725 -8.8125 26.625 C-10.20833333 29.41666667 -11.60416667 32.20833333 -13 35 C3.83 35 20.66 35 38 35 C38 35.33 38 35.66 38 36 C37.34489441 36.01030746 36.68978882 36.02061493 36.01483154 36.03123474 C29.20168161 36.13934424 22.38866273 36.25393883 15.57568359 36.37231445 C13.03241719 36.41564899 10.48912198 36.45732513 7.94580078 36.49731445 C4.29190381 36.55505258 0.63815169 36.61873725 -3.015625 36.68359375 C-4.15429016 36.70030624 -5.29295532 36.71701874 -6.46612549 36.73423767 C-8.05732208 36.7641555 -8.05732208 36.7641555 -9.68066406 36.79467773 C-10.61332092 36.81022202 -11.54597778 36.8257663 -12.50689697 36.84178162 C-14.97654308 36.91907326 -14.97654308 36.91907326 -17.2074585 37.57533264 C-19 38 -19 38 -21 37 C-21.12375 38.0725 -21.2475 39.145 -21.375 40.25 C-21.89719785 43.3831871 -22.29117129 45.38649726 -24 48 C-24.99 48.495 -24.99 48.495 -26 49 C-25.65120368 52.25543229 -24.97866739 53.01873107 -22.4375 55.25 C-21.2309375 56.11625 -21.2309375 56.11625 -20 57 C-20.33 57.66 -20.66 58.32 -21 59 C-25.455 55.535 -25.455 55.535 -30 52 C-29.10067451 48.40269803 -28.16468927 46.3061073 -26.3046875 43.18359375 C-25.7569165 42.25973877 -25.20914551 41.33588379 -24.64477539 40.3840332 C-24.06074951 39.41167725 -23.47672363 38.43932129 -22.875 37.4375 C-22.28259521 36.44258545 -21.69019043 35.4476709 -21.07983398 34.42260742 C-17.64682863 28.67737614 -14.13558554 23.00186237 -10.48828125 17.390625 C-8.2683487 13.82474909 -6.30921243 10.12908775 -4.359375 6.41015625 C-3.06190498 4.10975681 -1.63382796 2.0711172 0 0 Z " fill="#2278AE" transform="translate(61,45)"/>
<path d="M0 0 C0 0.33 0 0.66 0 1 C-1.48113281 1.16435547 -1.48113281 1.16435547 -2.9921875 1.33203125 C-4.91417969 1.56986328 -4.91417969 1.56986328 -6.875 1.8125 C-8.15117188 1.96332031 -9.42734375 2.11414063 -10.7421875 2.26953125 C-14.27770316 2.66848082 -14.27770316 2.66848082 -16 6 C-18.1640625 6.73046875 -18.1640625 6.73046875 -20.625 7.1875 C-21.44226562 7.34605469 -22.25953125 7.50460938 -23.1015625 7.66796875 C-23.72804687 7.77753906 -24.35453125 7.88710938 -25 8 C-25.495 6.515 -25.495 6.515 -26 5 C-26.33 5.99 -26.66 6.98 -27 8 C-28.77734375 9.38671875 -28.77734375 9.38671875 -30.9375 10.6875 C-31.64777344 11.12449219 -32.35804687 11.56148437 -33.08984375 12.01171875 C-35 13 -35 13 -37 13 C-37 13.66 -37 14.32 -37 15 C-37.556875 15.226875 -38.11375 15.45375 -38.6875 15.6875 C-47.61474 20.75431189 -55.05441975 32.34781613 -58 42 C-59.93751683 52.76540807 -59.45559088 64.18703914 -58 75 C-64.3781963 67.10742748 -65.98701624 55.89796564 -65 46 C-63.25345964 36.33913675 -60.85221408 28.05264657 -55 20 C-54.48566406 19.25234375 -53.97132812 18.5046875 -53.44140625 17.734375 C-52.96574219 17.16203125 -52.49007812 16.5896875 -52 16 C-51.34 16 -50.68 16 -50 16 C-49.78085937 15.4225 -49.56171875 14.845 -49.3359375 14.25 C-45.2971682 7.44786223 -35.21768738 2.86913 -27.84375 0.609375 C-18.68225025 -0.84305789 -9.24534968 -0.29158065 0 0 Z " fill="#89E2F4" transform="translate(79,9)"/>
<path d="M0 0 C0.66 0 1.32 0 2 0 C-0.31673577 10.03918833 -9.04989341 18.00827744 -17 24 C-29.57062797 31.40966634 -44.54190223 34.09852502 -58.875 31.1875 C-63.03632067 30.10227754 -67.0101095 28.5959562 -71 27 C-71 26.67 -71 26.34 -71 26 C-68.94921875 25.77213542 -66.8984375 25.54427083 -64.84765625 25.31640625 C-62.98859771 25.18113386 -62.98859771 25.18113386 -62 24 C-60.09089274 24.0233855 -58.18163469 24.05328862 -56.2734375 24.11669922 C-39.87826857 24.60067713 -27.07667225 20.58520109 -14.25 10.1875 C-10.83574141 7.42703561 -8.4638595 6.33478946 -4 6 C-3.67 5.34 -3.34 4.68 -3 4 C-2.34 4 -1.68 4 -1 4 C-0.67 2.68 -0.34 1.36 0 0 Z " fill="#3472DB" transform="translate(116,80)"/>
<path d="M0 0 C0.86373054 9.02118563 -1.69219656 14.72217512 -6.41015625 22.25 C-8 24 -8 24 -10.0078125 24.5390625 C-10.70648438 24.56742188 -11.40515625 24.59578125 -12.125 24.625 C-13.40375 24.74875 -14.6825 24.8725 -16 25 C-16.33 25.66 -16.66 26.32 -17 27 C-20 28 -20 28 -23 27 C-28.76584475 26.15394193 -34.49479345 25.7413739 -40.3125 25.46484375 C-41.16682617 25.42186661 -42.02115234 25.37888947 -42.90136719 25.33460999 C-45.60078135 25.19945072 -48.30037662 25.0684069 -51 24.9375 C-52.84246151 24.84597628 -54.68490959 24.75418202 -56.52734375 24.66210938 C-61.01808015 24.4382792 -65.5089836 24.2181369 -70 24 C-70 23.34 -70 22.68 -70 22 C-69.35377686 21.99635437 -68.70755371 21.99270874 -68.04174805 21.98895264 C-61.29260791 21.94701871 -54.5441409 21.87759643 -47.79541016 21.79248047 C-45.27952825 21.76432123 -42.7635587 21.74308172 -40.24755859 21.72900391 C-36.62291764 21.70750544 -32.99932483 21.6608163 -29.375 21.609375 C-27.69796997 21.60753204 -27.69796997 21.60753204 -25.98706055 21.60565186 C-19.75119725 21.48970355 -13.99420704 21.11440796 -9 17 C-7.2142 14.01530617 -6.74789914 11.90832776 -6.8125 8.4375 C-6.82216797 7.29087891 -6.82216797 7.29087891 -6.83203125 6.12109375 C-6.92946495 3.81102284 -6.92946495 3.81102284 -8 1 C-5.23735711 0.40267181 -2.83967231 0 0 0 Z " fill="#1E437B" transform="translate(116,59)"/>
<path d="M0 0 C-0.226875 0.9075 -0.45375 1.815 -0.6875 2.75 C-1.22280961 6.35972291 -0.56233345 9.07242715 0.4375 12.5625 C3.46089516 23.72258996 2.36720217 34.05659296 -1 45 C-1.99 45 -2.98 45 -4 45 C-4.33 46.32 -4.66 47.64 -5 49 C-5.66 49 -6.32 49 -7 49 C-7.33 49.99 -7.66 50.98 -8 52 C-11.465 52.495 -11.465 52.495 -15 53 C-15 52.34 -15 51.68 -15 51 C-14.34 51 -13.68 51 -13 51 C-12.9175 50.46375 -12.835 49.9275 -12.75 49.375 C-11.73817124 46.17087558 -9.86150595 43.79225892 -8 41 C-3.3147377 31.26907061 -1.86466274 22.67668631 -4 12 C-4.66 12 -5.32 12 -6 12 C-6.91892116 8.32431536 -6.95904856 6.83619425 -6 3 C-13.26 2.67 -20.52 2.34 -28 2 C-28 1.67 -28 1.34 -28 1 C-24.08339071 0.83196656 -20.16670399 0.66581012 -16.25 0.5 C-15.13882813 0.45230469 -14.02765625 0.40460937 -12.8828125 0.35546875 C-11.27792969 0.28779297 -11.27792969 0.28779297 -9.640625 0.21875 C-8.65610352 0.17685547 -7.67158203 0.13496094 -6.65722656 0.09179688 C-4.43926319 0.01517484 -2.21928648 0 0 0 Z " fill="#377BB7" transform="translate(120,35)"/>
<path d="M0 0 C0 0.99 0 1.98 0 3 C0.66 3 1.32 3 2 3 C2 4.32 2 5.64 2 7 C2.598125 7.04125 3.19625 7.0825 3.8125 7.125 C6 8 6 8 7.75 10.75 C8.9385945 13.84034569 9.3721395 15.74377939 9 19 C8 20 8 20 4.98046875 20.1328125 C3.72878906 20.13023438 2.47710937 20.12765625 1.1875 20.125 C-0.67841797 20.12886719 -0.67841797 20.12886719 -2.58203125 20.1328125 C-5.28786002 20.02767173 -7.44334355 19.81143252 -10 19 C-10 18.34 -10 17.68 -10 17 C-9.34 17 -8.68 17 -8 17 C-7.87625 16.360625 -7.7525 15.72125 -7.625 15.0625 C-7.41875 14.051875 -7.2125 13.04125 -7 12 C-6.8659375 11.26394531 -6.731875 10.52789062 -6.59375 9.76953125 C-6.4390625 8.97933594 -6.284375 8.18914063 -6.125 7.375 C-5.98320313 6.61960937 -5.84140625 5.86421875 -5.6953125 5.0859375 C-4.68275084 2.04825251 -3.35130745 0 0 0 Z " fill="#2084BF" transform="translate(63,49)"/>
<path d="M0 0 C1.67642578 0.01353516 1.67642578 0.01353516 3.38671875 0.02734375 C6.13303462 0.05081654 8.87890472 0.08365272 11.625 0.125 C11.625 0.455 11.625 0.785 11.625 1.125 C10.14386719 1.28935547 10.14386719 1.28935547 8.6328125 1.45703125 C6.71082031 1.69486328 6.71082031 1.69486328 4.75 1.9375 C3.47382812 2.08832031 2.19765625 2.23914063 0.8828125 2.39453125 C-2.65270316 2.79348082 -2.65270316 2.79348082 -4.375 6.125 C-6.5390625 6.85546875 -6.5390625 6.85546875 -9 7.3125 C-10.22589844 7.55033203 -10.22589844 7.55033203 -11.4765625 7.79296875 C-12.41628906 7.95732422 -12.41628906 7.95732422 -13.375 8.125 C-13.705 7.135 -14.035 6.145 -14.375 5.125 C-14.705 6.115 -15.035 7.105 -15.375 8.125 C-17.15234375 9.51171875 -17.15234375 9.51171875 -19.3125 10.8125 C-20.02277344 11.24949219 -20.73304687 11.68648437 -21.46484375 12.13671875 C-23.375 13.125 -23.375 13.125 -25.375 13.125 C-25.375 13.785 -25.375 14.445 -25.375 15.125 C-26.014375 15.41375 -26.65375 15.7025 -27.3125 16 C-29.52706079 16.95323451 -29.52706079 16.95323451 -30.375 19.125 C-31.035 18.795 -31.695 18.465 -32.375 18.125 C-31.94816368 16.85054546 -31.50802798 15.58054118 -31.0625 14.3125 C-30.81886719 13.60480469 -30.57523438 12.89710937 -30.32421875 12.16796875 C-28.24644964 7.6960624 -24.76349604 6.08581738 -20.375 4.125 C-19.715 4.125 -19.055 4.125 -18.375 4.125 C-18.375 3.465 -18.375 2.805 -18.375 2.125 C-12.39131659 -0.54141331 -6.40977075 -0.09814726 0 0 Z " fill="#5DC5E3" transform="translate(67.375,8.875)"/>
<path d="M0 0 C0.66 0.33 1.32 0.66 2 1 C2 4 2 4 1 10 C17.83 10 34.66 10 52 10 C52 10.33 52 10.66 52 11 C51.34489441 11.01030746 50.68978882 11.02061493 50.01483154 11.03123474 C43.20168161 11.13934424 36.38866273 11.25393883 29.57568359 11.37231445 C27.03241719 11.41564899 24.48912198 11.45732513 21.94580078 11.49731445 C18.29190381 11.55505258 14.63815169 11.61873725 10.984375 11.68359375 C9.84570984 11.70030624 8.70704468 11.71701874 7.53387451 11.73423767 C5.94267792 11.7641555 5.94267792 11.7641555 4.31933594 11.79467773 C3.38667908 11.81022202 2.45402222 11.8257663 1.49310303 11.84178162 C-0.97654308 11.91907326 -0.97654308 11.91907326 -3.2074585 12.57533264 C-5 13 -5 13 -7 12 C-7.12375 13.0725 -7.2475 14.145 -7.375 15.25 C-7.89719785 18.3831871 -8.29117129 20.38649726 -10 23 C-10.66 23.33 -11.32 23.66 -12 24 C-11.65120368 27.25543229 -10.97866739 28.01873107 -8.4375 30.25 C-7.2309375 31.11625 -7.2309375 31.11625 -6 32 C-6.33 32.66 -6.66 33.32 -7 34 C-9.97 31.69 -12.94 29.38 -16 27 C-14.6604924 21.64196962 -11.95349152 17.51892442 -9.125 12.8125 C-8.58230469 11.88501953 -8.03960937 10.95753906 -7.48046875 10.00195312 C-6.95324219 9.12087891 -6.42601562 8.23980469 -5.8828125 7.33203125 C-5.40215332 6.52483643 -4.92149414 5.7176416 -4.42626953 4.88598633 C-3 3 -3 3 0 2 C0 1.34 0 0.68 0 0 Z " fill="#8CA6CC" transform="translate(47,70)"/>
<path d="M0 0 C1.66666667 0 3.33333333 0 5 0 C5 1.65 5 3.3 5 5 C4.01 4.67 3.02 4.34 2 4 C2.05800781 4.556875 2.11601563 5.11375 2.17578125 5.6875 C2.57342743 12.41340113 0.78938872 15.63321023 -3 21 C-4.38633076 23.24402177 -5.76154468 25.4922488 -7.125 27.75 C-11.8273722 35.47140493 -11.8273722 35.47140493 -14 38 C-14.66 38 -15.32 38 -16 38 C-15.43026084 34.0118259 -14.16380338 31.37553327 -12 28 C-10.46350692 25.25048607 -10 24.22585306 -10 21 C-9.00692179 19.66150329 -8.00642948 18.32848691 -7 17 C-5.89040754 13.94862074 -5.93260081 13.20219758 -7 10 C-4.69 9.01 -2.38 8.02 0 7 C0 4.69 0 2.38 0 0 Z " fill="#2378B2" transform="translate(32,57)"/>
<path d="M0 0 C-0.804375 0.28875 -1.60875 0.5775 -2.4375 0.875 C-5.1326468 1.73262568 -5.1326468 1.73262568 -6 4 C-5.34 4.33 -4.68 4.66 -4 5 C-8.00119713 7.66746475 -11.28484925 7.61403054 -16 7.875 C-17.27580933 7.94738892 -17.27580933 7.94738892 -18.57739258 8.02124023 C-25.38749901 8.26540668 -30.90549665 7.19105456 -37 4 C-37 3.67 -37 3.34 -37 3 C-34.94921875 2.77213542 -32.8984375 2.54427083 -30.84765625 2.31640625 C-28.98859771 2.18113386 -28.98859771 2.18113386 -28 1 C-24.34629036 0.97338609 -20.70481421 1.02824826 -17.05273438 1.12695312 C-13.00935054 1.1836205 -9.45333517 0.98818157 -5.53515625 -0.06640625 C-2 -1 -2 -1 0 0 Z " fill="#295BCA" transform="translate(82,103)"/>
<path d="M0 0 C3.44552193 1.14850731 4.49149722 2.41982571 7 5 C8.05909178 5.81693763 9.1217519 6.6292652 10.1875 7.4375 C13 10 13 10 13.9375 12.6875 C14 15 14 15 13 17 C10.03 17 7.06 17 4 17 C1.40106452 11.66916025 -0.62753202 6.95948775 -1 1 C-0.67 0.67 -0.34 0.34 0 0 Z " fill="#3577AD" transform="translate(83,53)"/>
<path d="M0 0 C1.32 0.66 2.64 1.32 4 2 C-4.92840135 11.99271409 -16.65673741 18.26537586 -30 20 C-32.41481546 20.11335924 -34.83255948 20.17464127 -37.25 20.1875 C-38.47203125 20.20167969 -39.6940625 20.21585938 -40.953125 20.23046875 C-44 20 -44 20 -46 18 C-45.36497559 17.9498877 -44.72995117 17.89977539 -44.07568359 17.84814453 C-41.17477477 17.61482321 -38.27494368 17.37001416 -35.375 17.125 C-33.87646484 17.00705078 -33.87646484 17.00705078 -32.34765625 16.88671875 C-24.99291993 16.26582044 -24.99291993 16.26582044 -18 14 C-17.566875 13.319375 -17.13375 12.63875 -16.6875 11.9375 C-14.18278465 9.06171571 -11.5386624 9.33604648 -7.86328125 9.078125 C-6.94095703 9.03945312 -6.94095703 9.03945312 -6 9 C-6.495 5.535 -6.495 5.535 -7 2 C-6.34 2 -5.68 2 -5 2 C-4.505 3.98 -4.505 3.98 -4 6 C-3.34 6 -2.68 6 -2 6 C-2 4.68 -2 3.36 -2 2 C-1.34 2 -0.68 2 0 2 C0 1.34 0 0.68 0 0 Z " fill="#4F8CDB" transform="translate(106,92)"/>
<path d="M0 0 C0.73250449 7.65060242 -0.45266319 13.65934726 -5 20 C-5.99 20.33 -6.98 20.66 -8 21 C-8 20.34 -8 19.68 -8 19 C-8.99 19.66 -9.98 20.32 -11 21 C-13.6875 21.125 -13.6875 21.125 -16 21 C-15.4225 20.7525 -14.845 20.505 -14.25 20.25 C-11.04247707 18.46804282 -8.64929455 16.2985891 -7 13 C-6.9047301 11.52331663 -6.87014041 10.04224543 -6.875 8.5625 C-6.87242188 7.78003906 -6.86984375 6.99757813 -6.8671875 6.19140625 C-6.91617452 3.82104653 -6.91617452 3.82104653 -8 1 C-5.23735711 0.40267181 -2.83967231 0 0 0 Z " fill="#20538B" transform="translate(116,59)"/>
<path d="M0 0 C0.33 0.66 0.66 1.32 1 2 C2.98 2 4.96 2 7 2 C7 2.66 7 3.32 7 4 C7.61875 4.0825 8.2375 4.165 8.875 4.25 C11 5 11 5 13 9 C6.4 9 -0.2 9 -7 9 C-6.34 6.69 -5.68 4.38 -5 2 C-2.375 0.5625 -2.375 0.5625 0 0 Z " fill="#349BC9" transform="translate(93,16)"/>
<path d="M0 0 C1.22763105 1.84144657 2.43976873 3.69348146 3.625 5.5625 C6.75605849 10.28298895 10.42704647 14.61185805 14 19 C13.34 19.33 12.68 19.66 12 20 C10.824375 18.7625 10.824375 18.7625 9.625 17.5 C7.36278736 14.77011494 7.36278736 14.77011494 5 15 C4.67 15.99 4.34 16.98 4 18 C4.66 18.33 5.32 18.66 6 19 C5.34 19.66 4.68 20.32 4 21 C2.63301613 18.21443118 1.28365462 15.42068672 -0.0625 12.625 C-0.64741211 11.43390625 -0.64741211 11.43390625 -1.24414062 10.21875 C-1.60830078 9.45820312 -1.97246094 8.69765625 -2.34765625 7.9140625 C-2.68804932 7.2123291 -3.02844238 6.5105957 -3.37915039 5.78759766 C-3.58403076 5.19769043 -3.78891113 4.6077832 -4 4 C-3.67 3.34 -3.34 2.68 -3 2 C-2.34 2.66 -1.68 3.32 -1 4 C-0.67 2.68 -0.34 1.36 0 0 Z " fill="#5A99BF" transform="translate(78,39)"/>
<path d="M0 0 C0.66 0 1.32 0 2 0 C0.58832253 5.26170694 -1.74850232 8.72171358 -5 13 C-6.65 12.67 -8.3 12.34 -10 12 C-10 12.66 -10 13.32 -10 14 C-10.66 14 -11.32 14 -12 14 C-12 15.32 -12 16.64 -12 18 C-12.66 18 -13.32 18 -14 18 C-14.33 16.68 -14.66 15.36 -15 14 C-16.32 14.33 -17.64 14.66 -19 15 C-13.94647946 9.80610389 -11.2003361 7.12005228 -4 6 C-3.67 5.34 -3.34 4.68 -3 4 C-2.34 4 -1.68 4 -1 4 C-0.67 2.68 -0.34 1.36 0 0 Z " fill="#3679D0" transform="translate(116,80)"/>
<path d="M0 0 C3.96 0.33 7.92 0.66 12 1 C11.67 1.66 11.34 2.32 11 3 C8.67504723 3.38749213 6.3400417 3.71758117 4 4 C3.01 4.33 2.02 4.66 1 5 C0.27067837 6.64021711 -0.381239 8.31496082 -1 10 C-2.28175084 12.40022132 -3.58437652 14.7663444 -4.9375 17.125 C-5.28490234 17.74503906 -5.63230469 18.36507812 -5.99023438 19.00390625 C-7.71618049 22.02674973 -9.3433064 24.71807509 -12 27 C-12 25.02 -12 23.04 -12 21 C-11.34 21 -10.68 21 -10 21 C-10 19.68 -10 18.36 -10 17 C-9.34 17 -8.68 17 -8 17 C-7.67 15.35 -7.34 13.7 -7 12 C-6.34 12 -5.68 12 -5 12 C-5 11.01 -5 10.02 -5 9 C-4.34 9 -3.68 9 -3 9 C-3 8.01 -3 7.02 -3 6 C-2.01 6 -1.02 6 0 6 C0 4.02 0 2.04 0 0 Z " fill="#63C2DF" transform="translate(56,24)"/>
<path d="M0 0 C0.99 0.66 1.98 1.32 3 2 C3.32470703 3.90429688 3.32470703 3.90429688 3.2578125 6.21875 C3.24298828 7.06469727 3.22816406 7.91064453 3.21289062 8.78222656 C3.18388672 9.6790918 3.15488281 10.57595703 3.125 11.5 C3.09262298 13.3176457 3.06393647 15.13536114 3.0390625 16.953125 C3.02649414 17.82517578 3.01392578 18.69722656 3.00097656 19.59570312 C2.99927459 23.78594971 3.44693787 27.85203405 4 32 C-2.36271707 23.92149406 -2.27274297 16.31145545 -1.421875 6.4765625 C-1 3 -1 3 0 0 Z " fill="#63D1EE" transform="translate(17,52)"/>
<path d="M0 0 C2 1 2 1 2.83203125 2.625 C3.08804057 6.24485264 1.36104213 8.90540373 -0.3125 12 C-0.63412109 12.61617187 -0.95574219 13.23234375 -1.28710938 13.8671875 C-2.18334341 15.58236228 -3.09129783 17.29139814 -4 19 C-4.67178008 20.33076435 -5.34136933 21.66267885 -6 23 C-8.41215354 19.38176969 -8.0629945 18.56289778 -7.25 14.4375 C-6.97929687 12.98150391 -6.97929687 12.98150391 -6.703125 11.49609375 C-6 9 -6 9 -4 7 C-3.3574765 4.93125966 -3.3574765 4.93125966 -3 3 C-2.34 3 -1.68 3 -1 3 C-0.67 2.01 -0.34 1.02 0 0 Z " fill="#78E2FA" transform="translate(25,32)"/>
<path d="M0 0 C-1.8125 1.5625 -1.8125 1.5625 -4 3 C-4.99 2.67 -5.98 2.34 -7 2 C-7 2.66 -7 3.32 -7 4 C-9.50139602 5.25069801 -11.27392691 5.13302467 -14.0625 5.125 C-15.41021484 5.12886719 -15.41021484 5.12886719 -16.78515625 5.1328125 C-19 5 -19 5 -20 4 C-22.95529504 3.83970312 -25.88982457 3.74042672 -28.84765625 3.68359375 C-30.17729652 3.6524221 -30.17729652 3.6524221 -31.53379822 3.62062073 C-34.376617 3.555026 -37.21953117 3.49619448 -40.0625 3.4375 C-41.98503606 3.3943242 -43.90756234 3.35071022 -45.83007812 3.30664062 C-50.55328668 3.19933457 -55.27659153 3.09809549 -60 3 C-60 2.67 -60 2.34 -60 2 C-59.3766124 1.99191315 -58.75322479 1.98382629 -58.11094666 1.97549438 C-51.60541865 1.88924019 -45.10018804 1.78972786 -38.5949707 1.68261719 C-36.16924038 1.64440396 -33.74345487 1.60953789 -31.31762695 1.578125 C-27.82483233 1.53230847 -24.33241511 1.47434059 -20.83984375 1.4140625 C-19.76041 1.40251129 -18.68097626 1.39096008 -17.5688324 1.37905884 C-13.01322598 1.29036128 -3.60344138 -1.80172069 0 0 Z " fill="#25406D" transform="translate(108,79)"/>
<path d="M0 0 C1.32 0.33 2.64 0.66 4 1 C3.9375 2.75 3.9375 2.75 3 5 C1.25495657 6.15335794 -0.51923895 7.07168581 -2.40625 7.97265625 C-4.34304975 8.98574144 -4.34304975 8.98574144 -5 12 C-5.99 12.66 -6.98 13.32 -8 14 C-8.2475 14.680625 -8.495 15.36125 -8.75 16.0625 C-9.1625 16.701875 -9.575 17.34125 -10 18 C-13.375 18.625 -13.375 18.625 -17 19 C-19.33588323 19.95584438 -19.33588323 19.95584438 -21 21 C-19.38405168 18.95880212 -17.7143618 16.95927063 -16 15 C-15.34 15 -14.68 15 -14 15 C-13.34 13.68 -12.68 12.36 -12 11 C-11.01 11 -10.02 11 -9 11 C-9 10.34 -9 9.68 -9 9 C-7.3203125 7.7109375 -7.3203125 7.7109375 -5.125 6.375 C-4.40570313 5.92898437 -3.68640625 5.48296875 -2.9453125 5.0234375 C-1 4 -1 4 1 4 C0.67 2.68 0.34 1.36 0 0 Z " fill="#3FC7EF" transform="translate(51,13)"/>
<path d="M0 0 C-2.626591 2.91843445 -5.66976339 4.94517315 -9 7 C-9.66 7 -10.32 7 -11 7 C-11 7.66 -11 8.32 -11 9 C-11.639375 9.28875 -12.27875 9.5775 -12.9375 9.875 C-15.15206079 10.82823451 -15.15206079 10.82823451 -16 13 C-16.66 12.67 -17.32 12.34 -18 12 C-17.57316368 10.72554546 -17.13302798 9.45554118 -16.6875 8.1875 C-16.44386719 7.47980469 -16.20023438 6.77210937 -15.94921875 6.04296875 C-14.45938532 2.83645483 -12.75078918 1.34651809 -9.5625 -0.125 C-8.716875 -0.41375 -7.87125 -0.7025 -7 -1 C-6.29875 -1.2475 -5.5975 -1.495 -4.875 -1.75 C-3 -2 -3 -2 0 0 Z " fill="#52CFF3" transform="translate(53,15)"/>
<path d="M0 0 C0.33 0.66 0.66 1.32 1 2 C2.32 2 3.64 2 5 2 C3.65731932 5.591189 2.05199725 8.78716992 0.0625 12.0625 C-0.44152344 12.89910156 -0.94554687 13.73570313 -1.46484375 14.59765625 C-2.89256248 16.83187258 -4.28503897 18.97662636 -6 21 C-6.66 21 -7.32 21 -8 21 C-7.43026084 17.0118259 -6.16380338 14.37553327 -4 11 C-2.46350692 8.25048607 -2 7.22585306 -2 4 C-1 1.8125 -1 1.8125 0 0 Z " fill="#386B98" transform="translate(24,74)"/>
<path d="M0 0 C2.4294516 3.6441774 2.16179575 5.71241272 2 10 C1.01 10.495 1.01 10.495 0 11 C0.33 11.66 0.66 12.32 1 13 C1.33333333 15.33333333 1.66666667 17.66666667 2 20 C2.33 20.66 2.66 21.32 3 22 C2.835 22.969375 2.67 23.93875 2.5 24.9375 C1.75153105 28.02952435 1.75153105 28.02952435 3 31 C2.34 31 1.68 31 1 31 C-1.48042045 25.21235229 -2.30095239 20.0944021 -2.3125 13.8125 C-2.31765625 13.13574219 -2.3228125 12.45898438 -2.328125 11.76171875 C-2.26946696 7.4880612 -1.55128512 3.97400929 0 0 Z " fill="#2378B2" transform="translate(21,52)"/>
<path d="M0 0 C4 1 4 1 5.75 3.75 C6.9385945 6.84034569 7.3721395 8.74377939 7 12 C6 13 6 13 2.83984375 13.09765625 C0.90818359 13.08025391 0.90818359 13.08025391 -1.0625 13.0625 C-2.35285156 13.05347656 -3.64320312 13.04445313 -4.97265625 13.03515625 C-5.97167969 13.02355469 -6.97070312 13.01195313 -8 13 C-8 12.67 -8 12.34 -8 12 C-5.36 12 -2.72 12 0 12 C0 8.04 0 4.08 0 0 Z " fill="#2F81B5" transform="translate(65,56)"/>
<path d="M0 0 C0.33 0 0.66 0 1 0 C1.33 1.65 1.66 3.3 2 5 C2.33 4.01 2.66 3.02 3 2 C4.32 2.33 5.64 2.66 7 3 C6.67 3.78375 6.34 4.5675 6 5.375 C4.88133489 7.84332497 4.88133489 7.84332497 5 10 C6.32 10.66 7.64 11.32 9 12 C9 12.66 9 13.32 9 14 C9.99 14.33 10.98 14.66 12 15 C12.309375 15.825 12.61875 16.65 12.9375 17.5 C13.288125 18.325 13.63875 19.15 14 20 C16.04105639 20.88693303 16.04105639 20.88693303 18 21 C17.67 21.66 17.34 22.32 17 23 C17 23.66 17 24.32 17 25 C16.67 25.99 16.34 26.98 16 28 C15.64808594 27.3709375 15.29617187 26.741875 14.93359375 26.09375 C11.84551703 20.74000863 8.61479593 16.1439118 4.3203125 11.69140625 C3 10 3 10 3 7 C1.68 6.34 0.36 5.68 -1 5 C-0.67 3.35 -0.34 1.7 0 0 Z " fill="#719FBF" transform="translate(93,38)"/>
<path d="M0 0 C1.98 0 3.96 0 6 0 C5.67 0.99 5.34 1.98 5 3 C3.68 3 2.36 3 1 3 C0.855625 4.155 0.71125 5.31 0.5625 6.5 C0.4696875 7.22316406 0.376875 7.94632813 0.28125 8.69140625 C0.09529033 10.21782522 -0.07172266 11.74668415 -0.21875 13.27734375 C-0.41271959 15.19279346 -0.69973369 17.0983134 -1 19 C-1.66 19.33 -2.32 19.66 -3 20 C-5 17 -5 17 -4.75 14.625 C-3.99658183 11.98803642 -3.0285457 9.5411129 -2 7 C-1.31320058 4.67251306 -0.64238957 2.34013344 0 0 Z " fill="#3DA1CB" transform="translate(79,24)"/>
<path d="M0 0 C1 3 1 3 0 6 C-2.06640625 6.73046875 -2.06640625 6.73046875 -4.5625 7.1875 C-5.38878906 7.34605469 -6.21507813 7.50460938 -7.06640625 7.66796875 C-8.02353516 7.83232422 -8.02353516 7.83232422 -9 8 C-9 8.66 -9 9.32 -9 10 C-10.65 9.67 -12.3 9.34 -14 9 C-13.34 8.67 -12.68 8.34 -12 8 C-12 7.34 -12 6.68 -12 6 C-11.01 6 -10.02 6 -9 6 C-8.731875 5.38125 -8.46375 4.7625 -8.1875 4.125 C-6.04539468 0.2917589 -4.29196451 0 0 0 Z " fill="#377EE7" transform="translate(100,95)"/>
<path d="M0 0 C6.97096189 5.45553539 6.97096189 5.45553539 8 9 C7.62598266 11.99213869 6.35464293 14.33512866 5 17 C4.15238178 15.29870914 3.3225132 13.58856916 2.5 11.875 C2.0359375 10.92367187 1.571875 9.97234375 1.09375 8.9921875 C-0.07748116 5.78803369 -0.20076124 3.38282687 0 0 Z " fill="#48A5CD" transform="translate(68,24)"/>
<path d="M0 0 C0.66 0.33 1.32 0.66 2 1 C2 2.98 2 4.96 2 7 C1.34 7 0.68 7 0 7 C-0.33 7.99 -0.66 8.98 -1 10 C-3.31 10.33 -5.62 10.66 -8 11 C-8 10.34 -8 9.68 -8 9 C-7.34 9 -6.68 9 -6 9 C-5.9071875 8.1646875 -5.9071875 8.1646875 -5.8125 7.3125 C-4.66626128 4.05012827 -2.50609803 2.31332126 0 0 Z " fill="#2568BD" transform="translate(113,77)"/>
<path d="M0 0 C0.66 0 1.32 0 2 0 C2.33 0.33 2.66 0.66 3 1 C3.66 0.67 4.32 0.34 5 0 C6.89213403 0.40626902 8.76666849 0.89728735 10.625 1.4375 C11.62789062 1.72496094 12.63078125 2.01242188 13.6640625 2.30859375 C14.43492188 2.53675781 15.20578125 2.76492187 16 3 C14.27567608 5.13271643 13.35709679 5.92952037 10.625 6.46875 C7.99433072 6.50006749 5.58904326 6.48381112 3 6 C0 2.55882353 0 2.55882353 0 0 Z " fill="#2247A8" transform="translate(40,100)"/>
<path d="M0 0 C-0.33 3.3 -0.66 6.6 -1 10 C-2.32 10 -3.64 10 -5 10 C-4.67 7.36 -4.34 4.72 -4 2 C-11.92 2 -19.84 2 -28 2 C-28 1.67 -28 1.34 -28 1 C-24.08339071 0.83196656 -20.16670399 0.66581012 -16.25 0.5 C-15.13882813 0.45230469 -14.02765625 0.40460937 -12.8828125 0.35546875 C-11.27792969 0.28779297 -11.27792969 0.28779297 -9.640625 0.21875 C-8.65610352 0.17685547 -7.67158203 0.13496094 -6.65722656 0.09179688 C-4.43926319 0.01517484 -2.21928648 0 0 0 Z " fill="#559BBC" transform="translate(120,35)"/>
<path d="M0 0 C-1.37291868 0.48509793 -2.74846703 0.96275513 -4.125 1.4375 C-4.89070313 1.70433594 -5.65640625 1.97117187 -6.4453125 2.24609375 C-11.70978765 3.7996774 -16.77639835 4.1583851 -22.25 4.1875 C-23.47203125 4.20167969 -24.6940625 4.21585937 -25.953125 4.23046875 C-29 4 -29 4 -31 2 C-30.35973877 1.94465088 -29.71947754 1.88930176 -29.05981445 1.83227539 C-26.1437846 1.57855835 -23.22814766 1.32057051 -20.3125 1.0625 C-18.80139648 0.93198242 -18.80139648 0.93198242 -17.25976562 0.79882812 C-16.28330078 0.71181641 -15.30683594 0.62480469 -14.30078125 0.53515625 C-13.40528564 0.456604 -12.50979004 0.37805176 -11.5871582 0.29711914 C-8.9704134 0.03648884 -8.9704134 0.03648884 -6.31323242 -0.56079102 C-3.83576044 -1.03118385 -2.3680168 -0.78933893 0 0 Z " fill="#86A0D2" transform="translate(91,108)"/>
<path d="M0 0 C0.66 0.33 1.32 0.66 2 1 C2.33 1.99 2.66 2.98 3 4 C8.94 4.33 14.88 4.66 21 5 C21 5.33 21 5.66 21 6 C0.46808511 7.95744681 0.46808511 7.95744681 -9 3 C-9 2.67 -9 2.34 -9 2 C-6.94921875 1.77213542 -4.8984375 1.54427083 -2.84765625 1.31640625 C-0.98859771 1.18113386 -0.98859771 1.18113386 0 0 Z " fill="#4C6CBB" transform="translate(54,104)"/>
<path d="M0 0 C0.33 0.66 0.66 1.32 1 2 C0.34249689 3.33787589 -0.3256926 4.67051448 -1 6 C-1.44811137 8.35564596 -1.44811137 8.35564596 -1.625 10.75 C-1.69976563 11.54921875 -1.77453125 12.3484375 -1.8515625 13.171875 C-1.90054687 13.77515625 -1.94953125 14.3784375 -2 15 C-2.99 14.67 -3.98 14.34 -5 14 C-5.33 13.34 -5.66 12.68 -6 12 C-6.33 12.66 -6.66 13.32 -7 14 C-7.66 14 -8.32 14 -9 14 C-8.38479725 10.00118212 -6.39731331 7.19641774 -4 4 C-3.34 4 -2.68 4 -2 4 C-1.34 2.68 -0.68 1.36 0 0 Z " fill="#97E5F4" transform="translate(31,21)"/>
<path d="M0 0 C2 3.875 2 3.875 2 5 C-14.69230769 7.15384615 -14.69230769 7.15384615 -19 5 C-19.433125 5.928125 -19.433125 5.928125 -19.875 6.875 C-21 9 -21 9 -23 11 C-23 10.34 -23 9.68 -23 9 C-23.66 8.67 -24.32 8.34 -25 8 C-23.25776883 5.4967943 -21.83147708 4.15981446 -18.79492188 3.57617188 C-16.10913649 3.38154975 -13.44247745 3.29148075 -10.75 3.25 C-9.81414063 3.22035156 -8.87828125 3.19070312 -7.9140625 3.16015625 C-5.60928908 3.08960196 -3.30551832 3.03683748 -1 3 C-0.67 2.01 -0.34 1.02 0 0 Z " fill="#6E9DBB" transform="translate(72,65)"/>
<path d="M0 0 C3 1 3 1 4.203125 2.99609375 C4.54859375 3.80175781 4.8940625 4.60742188 5.25 5.4375 C5.60578125 6.24058594 5.9615625 7.04367188 6.328125 7.87109375 C7 10 7 10 6 12 C5.34 11.67 4.68 11.34 4 11 C4 9.68 4 8.36 4 7 C3.34 7 2.68 7 2 7 C2 6.01 2 5.02 2 4 C1.34 4 0.68 4 0 4 C-0.33 4.99 -0.66 5.98 -1 7 C-1.66 7 -2.32 7 -3 7 C-2.67 7.99 -2.34 8.98 -2 10 C-3.32 10.33 -4.64 10.66 -6 11 C-5.18993474 9.35296694 -4.3768779 7.70740494 -3.5625 6.0625 C-3.11003906 5.14597656 -2.65757813 4.22945312 -2.19140625 3.28515625 C-1 1 -1 1 0 0 Z " fill="#64A6C4" transform="translate(61,45)"/>
<path d="M0 0 C5.14018692 7.71028037 5.14018692 7.71028037 4.6875 11.875 C4.460625 12.57625 4.23375 13.2775 4 14 C3.67 13.01 3.34 12.02 3 11 C2.01 11.33 1.02 11.66 0 12 C-0.69710731 10.71349294 -1.38242876 9.42059335 -2.0625 8.125 C-2.63677734 7.04605469 -2.63677734 7.04605469 -3.22265625 5.9453125 C-3.47917969 5.30335937 -3.73570313 4.66140625 -4 4 C-3.67 3.34 -3.34 2.68 -3 2 C-2.34 2.66 -1.68 3.32 -1 4 C-0.67 2.68 -0.34 1.36 0 0 Z " fill="#418EBB" transform="translate(78,39)"/>
<path d="M0 0 C3.63 0.33 7.26 0.66 11 1 C9.35 2.65 7.7 4.3 6 6 C6 5.34 6 4.68 6 4 C3.52733235 4.34444881 3.52733235 4.34444881 1 5 C0.67 5.66 0.34 6.32 0 7 C-1.125 2.25 -1.125 2.25 0 0 Z " fill="#1F4B86" transform="translate(40,82)"/>
<path d="M0 0 C2.625 1.4375 2.625 1.4375 5 3 C4.125 7.75 4.125 7.75 3 10 C1.35 10 -0.3 10 -2 10 C-1.814375 9.071875 -1.62875 8.14375 -1.4375 7.1875 C-0.75876119 3.98656229 -0.75876119 3.98656229 -2 1 C-1.34 0.67 -0.68 0.34 0 0 Z " fill="#2C6A9F" transform="translate(27,66)"/>
<path d="M0 0 C-0.804375 0.28875 -1.60875 0.5775 -2.4375 0.875 C-5.1326468 1.73262568 -5.1326468 1.73262568 -6 4 C-5.34 4.33 -4.68 4.66 -4 5 C-7.89827773 6.08285493 -9.51513893 5.96023435 -13 4 C-14.65740715 3.62331656 -16.32345271 3.27942455 -18 3 C-18 2.67 -18 2.34 -18 2 C-15.37638987 1.47109454 -12.75151775 0.95157912 -10.125 0.4375 C-9.37863281 0.28603516 -8.63226563 0.13457031 -7.86328125 -0.02148438 C-2.2265625 -1.11328125 -2.2265625 -1.11328125 0 0 Z " fill="#2F61CB" transform="translate(82,103)"/>
<path d="M0 0 C1.65 0.33 3.3 0.66 5 1 C4.67 2.32 4.34 3.64 4 5 C2.9275 5.12375 1.855 5.2475 0.75 5.375 C-2.37863615 5.89643936 -4.33480424 6.40088254 -7 8 C-5.38405168 5.95880212 -3.7143618 3.95927063 -2 2 C-1.34 2 -0.68 2 0 2 C0 1.34 0 0.68 0 0 Z " fill="#2EB2DF" transform="translate(37,26)"/>
<path d="M0 0 C7.16707877 0.32577631 12.76927124 3.65443628 19 7 C14.80011607 8.29227198 12.13203474 7.50255809 8 6 C6.375 4.5 6.375 4.5 5 3 C2.40084462 1.80972016 2.40084462 1.80972016 0 1 C0 0.67 0 0.34 0 0 Z " fill="#6ABDDB" transform="translate(79,10)"/>
<path d="M0 0 C1.80188059 2.70282088 2.85355431 4.99058007 4 8 C4.556875 9.2065625 4.556875 9.2065625 5.125 10.4375 C6.14083872 13.41245626 6.14522526 15.87765691 6 19 C1.85250621 14.4575068 0.13000801 8.47015213 -0.1875 2.4375 C-0.125625 1.633125 -0.06375 0.82875 0 0 Z " fill="#8ED5E8" transform="translate(15,65)"/>
<path d="M0 0 C1.19180968 3.4626903 0.80706459 5.65326824 -0.25 9.125 C-0.50265625 9.99382812 -0.7553125 10.86265625 -1.015625 11.7578125 C-2 14 -2 14 -5 16 C-5 15.01 -5 14.02 -5 13 C-4.34 13 -3.68 13 -3 13 C-3 9.37 -3 5.74 -3 2 C-2.01 2 -1.02 2 0 2 C0 1.34 0 0.68 0 0 Z " fill="#19467D" transform="translate(114,64)"/>
<path d="M0 0 C0.66 0.33 1.32 0.66 2 1 C2.40729228 3.32156597 2.74438677 5.6568787 3 8 C2.01 8.66 1.02 9.32 0 10 C-0.268125 9.401875 -0.53625 8.80375 -0.8125 8.1875 C-1.98493467 6.02775192 -3.19369282 4.64209744 -5 3 C-4.360625 2.87625 -3.72125 2.7525 -3.0625 2.625 C-2.0415625 2.315625 -2.0415625 2.315625 -1 2 C-0.67 1.34 -0.34 0.68 0 0 Z " fill="#2A9FD1" transform="translate(75,23)"/>
<path d="M0 0 C1.77007714 -0.08114106 3.54122098 -0.13925505 5.3125 -0.1875 C6.29863281 -0.22230469 7.28476563 -0.25710937 8.30078125 -0.29296875 C11 0 11 0 12.85546875 1.51171875 C13.23316406 2.00285156 13.61085938 2.49398437 14 3 C13.01 3.495 13.01 3.495 12 4 C12 3.34 12 2.68 12 2 C11.278125 2.185625 10.55625 2.37125 9.8125 2.5625 C6.87173027 3.01995307 4.85896942 2.73516357 2 2 C1.67 3.32 1.34 4.64 1 6 C0 5 0 5 -0.0625 2.4375 C-0.041875 1.633125 -0.02125 0.82875 0 0 Z " fill="#257BAC" transform="translate(94,38)"/>
<path d="M0 0 C1.32 0.33 2.64 0.66 4 1 C1 5.5 1 5.5 -2 10 C-2.66 10 -3.32 10 -4 10 C-3.43454163 6.04179141 -2.19097652 3.3340947 0 0 Z " fill="#82A3C5" transform="translate(20,85)"/>
<path d="M0 0 C0.66 0.33 1.32 0.66 2 1 C1.56615128 6.42310905 0.35497322 9.70144056 -3 14 C-3.33 14 -3.66 14 -4 14 C-4 12.02 -4 10.04 -4 8 C-3.34 8 -2.68 8 -2 8 C-2 6.68 -2 5.36 -2 4 C-1.34 4 -0.68 4 0 4 C0 2.68 0 1.36 0 0 Z " fill="#59AFD2" transform="translate(48,37)"/>
<path d="M0 0 C-1.0725 0.598125 -2.145 1.19625 -3.25 1.8125 C-5.36656507 3.01103685 -7.21414486 4.17005621 -9.125 5.6875 C-11.37958651 7.26571056 -13.29823138 7.62475436 -16 8 C-11.83275308 3.51219563 -6.4116569 -2.13721897 0 0 Z " fill="#90DCEE" transform="translate(49,13)"/>
<path d="M0 0 C0.33 0 0.66 0 1 0 C1 3.63 1 7.26 1 11 C0.34 11 -0.32 11 -1 11 C-1.33 11.99 -1.66 12.98 -2 14 C-2 13.34 -2 12.68 -2 12 C-2.99 12.66 -3.98 13.32 -5 14 C-7.6875 14.125 -7.6875 14.125 -10 14 C-9.4225 13.7525 -8.845 13.505 -8.25 13.25 C-4.9192415 11.39957861 -2.57151489 9.67601557 -1.3046875 5.9609375 C-0.80972605 3.98806301 -0.39890333 1.99451666 0 0 Z " fill="#5D7292" transform="translate(110,66)"/>
<path d="M0 0 C1.32 0.66 2.64 1.32 4 2 C4 2.99 4 3.98 4 5 C6.4390706 7.20142332 6.4390706 7.20142332 9 9 C8.67 9.66 8.34 10.32 8 11 C5.03 8.69 2.06 6.38 -1 4 C-0.67 2.68 -0.34 1.36 0 0 Z " fill="#6478B2" transform="translate(32,93)"/>
<path d="M0 0 C6.93 0 13.86 0 21 0 C20.67 0.66 20.34 1.32 20 2 C15.52459016 3.26229508 15.52459016 3.26229508 13 2 C10.9625237 1.77141886 8.91959697 1.58975722 6.875 1.4375 C5.23144531 1.31181641 5.23144531 1.31181641 3.5546875 1.18359375 C2.71164063 1.12300781 1.86859375 1.06242187 1 1 C0.67 1.99 0.34 2.98 0 4 C0 2.68 0 1.36 0 0 Z " fill="#2C739C" transform="translate(92,37)"/>
<path d="M0 0 C4.29 0 8.58 0 13 0 C13 0.33 13 0.66 13 1 C12.32453125 1.04898437 11.6490625 1.09796875 10.953125 1.1484375 C10.06109375 1.22320312 9.1690625 1.29796875 8.25 1.375 C6.92742188 1.47941406 6.92742188 1.47941406 5.578125 1.5859375 C2.99513749 2.00078095 1.30649555 2.82720565 -1 4 C-3.75 3.625 -3.75 3.625 -6 3 C-6.33 3.66 -6.66 4.32 -7 5 C-7.66 4.34 -8.32 3.68 -9 3 C-6.04335481 1.5216774 -3.25770263 1.93967217 0 2 C0 1.34 0 0.68 0 0 Z " fill="#49BFE2" transform="translate(56,10)"/>
<path d="M0 0 C0.66 0 1.32 0 2 0 C2.19785783 3.56144099 2.11103658 6.04454879 0 9 C-2.125 9.75 -2.125 9.75 -4 10 C-3.43697042 6.05879291 -2.3208055 3.2491277 0 0 Z " fill="#475D87" transform="translate(37,84)"/>
<path d="M0 0 C0.66 0.33 1.32 0.66 2 1 C2 3.33333333 2 5.66666667 2 8 C1.34 8 0.68 8 0 8 C-0.33 8.66 -0.66 9.32 -1 10 C-2 9 -2 9 -2.0625 5.4375 C-2.041875 4.303125 -2.02125 3.16875 -2 2 C-1.34 2 -0.68 2 0 2 C0 1.34 0 0.68 0 0 Z " fill="#2D628C" transform="translate(47,70)"/>
<path d="M0 0 C1.2065625 0.0309375 1.2065625 0.0309375 2.4375 0.0625 C2.4375 1.0525 2.4375 2.0425 2.4375 3.0625 C3.0975 3.7225 3.7575 4.3825 4.4375 5.0625 C2.4575 5.0625 0.4775 5.0625 -1.5625 5.0625 C-2.2225 3.7425 -2.8825 2.4225 -3.5625 1.0625 C-2.5625 0.0625 -2.5625 0.0625 0 0 Z " fill="#2953BD" transform="translate(58.5625,103.9375)"/>
<path d="M0 0 C1.5625 1.5625 1.5625 1.5625 3 4 C2.625 7.5625 2.625 7.5625 2 11 C2.33 11.99 2.66 12.98 3 14 C2.34 14 1.68 14 1 14 C0.63495397 12.41913952 0.28339494 10.83516093 -0.0625 9.25 C-0.25972656 8.36828125 -0.45695312 7.4865625 -0.66015625 6.578125 C-0.99825872 4.01320972 -0.81158635 2.42908361 0 0 Z " fill="#185C94" transform="translate(21,69)"/>
<path d="M0 0 C2.5625 2.1875 2.5625 2.1875 5 5 C4.8125 7.8125 4.8125 7.8125 4 10 C3.01 10 2.02 10 1 10 C1 9.34 1 8.68 1 8 C1.66 8 2.32 8 3 8 C2.505 7.4225 2.01 6.845 1.5 6.25 C0 4 0 4 0 0 Z " fill="#6F95B5" transform="translate(92,60)"/>
<path d="M0 0 C0.33 0 0.66 0 1 0 C1.33 1.65 1.66 3.3 2 5 C2.33 4.01 2.66 3.02 3 2 C4.32 2.33 5.64 2.66 7 3 C5.25 7.875 5.25 7.875 3 9 C3 8.34 3 7.68 3 7 C1.68 6.34 0.36 5.68 -1 5 C-0.67 3.35 -0.34 1.7 0 0 Z " fill="#4C9DC3" transform="translate(93,38)"/>
<path d="M0 0 C1.98 0.99 3.96 1.98 6 3 C6 3.33 6 3.66 6 4 C1.38 4 -3.24 4 -8 4 C-8 3.67 -8 3.34 -8 3 C-6.865625 2.690625 -5.73125 2.38125 -4.5625 2.0625 C-1.21224901 1.37075469 -1.21224901 1.37075469 0 0 Z " fill="#318EB6" transform="translate(100,21)"/>
<path d="M0 0 C2 2 2 2 2.125 5.125 C2.08375 6.07375 2.0425 7.0225 2 8 C1.01 8.495 1.01 8.495 0 9 C-2 6 -2 6 -1.6875 3.375 C-1 1 -1 1 0 0 Z " fill="#2788B2" transform="translate(76,35)"/>
<path d="M0 0 C0.66 0 1.32 0 2 0 C2.25 3.3125 2.25 3.3125 2 7 C0 8.9375 0 8.9375 -2 10 C-1.125 2.25 -1.125 2.25 0 0 Z " fill="#1E6CBE" transform="translate(117,67)"/>
<path d="M0 0 C1 2 1 2 0.44140625 3.9453125 C0.15136719 4.66460937 -0.13867188 5.38390625 -0.4375 6.125 C-0.72496094 6.84945312 -1.01242188 7.57390625 -1.30859375 8.3203125 C-1.53675781 8.87460938 -1.76492187 9.42890625 -2 10 C-2.66 10 -3.32 10 -4 10 C-4 10.66 -4 11.32 -4 12 C-4.66 11.67 -5.32 11.34 -6 11 C-4.02 7.37 -2.04 3.74 0 0 Z " fill="#629EBF" transform="translate(54,56)"/>
<path d="M0 0 C3 1 3 1 4.25 3.375 C5 6 5 6 4 9 C1.4375 6.75 1.4375 6.75 -1 4 C-0.8125 1.6875 -0.8125 1.6875 0 0 Z " fill="#2379B6" transform="translate(83,53)"/>
<path d="M0 0 C0 0.66 0 1.32 0 2 C1.32 2 2.64 2 4 2 C4 2.66 4 3.32 4 4 C-0.05606165 3.53199289 -3.46588679 3.12046792 -7 1 C-3.375 -1.125 -3.375 -1.125 0 0 Z " fill="#2A9FD6" transform="translate(87,14)"/>
<path d="M0 0 C0.66 0 1.32 0 2 0 C2.33 0.33 2.66 0.66 3 1 C3.99 1 4.98 1 6 1 C5.67 2.65 5.34 4.3 5 6 C3.0625 5.25 3.0625 5.25 1 4 C0.25 1.875 0.25 1.875 0 0 Z " fill="#3957AA" transform="translate(40,100)"/>
<path d="M0 0 C1.74627478 2.61941217 2.38722388 4.03824877 3 7 C2.01 7 1.02 7 0 7 C-0.66 7.66 -1.32 8.32 -2 9 C-2.66 6.69 -3.32 4.38 -4 2 C-2.515 2.99 -2.515 2.99 -1 4 C-0.67 2.68 -0.34 1.36 0 0 Z " fill="#80BFD8" transform="translate(78,39)"/>
<path d="M0 0 C0.66 0.33 1.32 0.66 2 1 C0.7508258 4.45925163 -0.67527795 7.14693203 -3 10 C-3 7.69 -3 5.38 -3 3 C-2.34 2.67 -1.68 2.34 -1 2 C-0.67 1.34 -0.34 0.68 0 0 Z " fill="#659BC1" transform="translate(37,58)"/>
<path d="M0 0 C0.66 0.33 1.32 0.66 2 1 C2.33 1.99 2.66 2.98 3 4 C1.0625 6.6875 1.0625 6.6875 -1 9 C-1.66 8.67 -2.32 8.34 -3 8 C-2.01 5.36 -1.02 2.72 0 0 Z " fill="#5ED7F6" transform="translate(38,19)"/>
<path d="M0 0 C1.32 0.33 2.64 0.66 4 1 C4 1.66 4 2.32 4 3 C1.6875 4.125 1.6875 4.125 -1 5 C-1.99 4.34 -2.98 3.68 -4 3 C-2.68 2.67 -1.36 2.34 0 2 C0 1.34 0 0.68 0 0 Z " fill="#34C1EE" transform="translate(42,22)"/>
<path d="M0 0 C2.97 0.495 2.97 0.495 6 1 C6 2.65 6 4.3 6 6 C5.01 5.67 4.02 5.34 3 5 C3 4.34 3 3.68 3 3 C2.01 2.67 1.02 2.34 0 2 C0 1.34 0 0.68 0 0 Z " fill="#263E9C" transform="translate(35,96)"/>
<path d="M0 0 C0.33 0.66 0.66 1.32 1 2 C2.32 2 3.64 2 5 2 C4.34 3.65 3.68 5.3 3 7 C1.68 6.01 0.36 5.02 -1 4 C-0.67 2.68 -0.34 1.36 0 0 Z " fill="#537EA8" transform="translate(24,74)"/>
<path d="M0 0 C0 0.66 0 1.32 0 2 C0.66 2 1.32 2 2 2 C1.67 3.32 1.34 4.64 1 6 C0.34 5.34 -0.32 4.68 -1 4 C-1.99 4.495 -1.99 4.495 -3 5 C-3.66 3.68 -4.32 2.36 -5 1 C-2 0 -2 0 0 0 Z " fill="#2EBBE9" transform="translate(53,24)"/>
<path d="M0 0 C0.66 0 1.32 0 2 0 C0.90931332 3.77545388 0.0916909 6.47043472 -3 9 C-3 7.35 -3 5.7 -3 4 C-2.34 4 -1.68 4 -1 4 C-0.67 2.68 -0.34 1.36 0 0 Z " fill="#75A0D0" transform="translate(116,80)"/>
<path d="M0 0 C0.66 0.99 1.32 1.98 2 3 C1.01 4.32 0.02 5.64 -1 7 C-1.66 6.01 -2.32 5.02 -3 4 C-3 4.66 -3 5.32 -3 6 C-3.66 5.67 -4.32 5.34 -5 5 C-4.34 4.01 -3.68 3.02 -3 2 C-2.01 2 -1.02 2 0 2 C0 1.34 0 0.68 0 0 Z " fill="#4B85B1" transform="translate(50,66)"/>
<path d="M0 0 C-5.2734375 3.22265625 -5.2734375 3.22265625 -7 4 C-7.66 3.67 -8.32 3.34 -9 3 C-8.67 2.01 -8.34 1.02 -8 0 C-2.25 -1.125 -2.25 -1.125 0 0 Z " fill="#80A9E5" transform="translate(100,103)"/>
<path d="M0 0 C0.66 0.33 1.32 0.66 2 1 C1.67 2.98 1.34 4.96 1 7 C0.34 7 -0.32 7 -1 7 C-1.625 4.625 -1.625 4.625 -2 2 C-1.34 1.34 -0.68 0.68 0 0 Z " fill="#2E7CE0" transform="translate(103,91)"/>
<path d="M0 0 C0.93065133 2.60582371 1.14917407 3.64198224 0.0625 6.25 C-0.4634375 7.11625 -0.4634375 7.11625 -1 8 C-2.32 7.67 -3.64 7.34 -5 7 C-4.01 6.67 -3.02 6.34 -2 6 C-1.32843384 4.06381575 -1.32843384 4.06381575 -1 2 C-0.67 1.34 -0.34 0.68 0 0 Z " fill="#1A3F75" transform="translate(39,87)"/>
<path d="M0 0 C2.09350689 3.4019487 2.17942163 6.05272412 2 10 C0.4375 8.375 0.4375 8.375 -1 6 C-0.6875 2.75 -0.6875 2.75 0 0 Z " fill="#6EB7DB" transform="translate(19,74)"/>
<path d="M0 0 C1.65 0 3.3 0 5 0 C5 0.66 5 1.32 5 2 C4.34 2 3.68 2 3 2 C3 2.66 3 3.32 3 4 C1.35 4 -0.3 4 -2 4 C-2 3.34 -2 2.68 -2 2 C-1.34 2 -0.68 2 0 2 C0 1.34 0 0.68 0 0 Z " fill="#306A9E" transform="translate(90,66)"/>
<path d="M0 0 C1.32 0.99 2.64 1.98 4 3 C3.67 3.99 3.34 4.98 3 6 C2.67 5.34 2.34 4.68 2 4 C-0.02463255 3.34786708 -0.02463255 3.34786708 -2 3 C-1.34 2.01 -0.68 1.02 0 0 Z " fill="#4986B4" transform="translate(30,65)"/>
<path d="M0 0 C4.875 4.75 4.875 4.75 6 7 C3.5625 6.3125 3.5625 6.3125 1 5 C0.1875 2.375 0.1875 2.375 0 0 Z " fill="#75A5C2" transform="translate(86,52)"/>
</svg>
